<mxfile host="app.diagrams.net" agent="Mozilla/5.0 (Windows NT 10.0; Win64; x64; rv:143.0) Gecko/20100101 Firefox/143.0" version="28.0.7">
  <diagram name="PÃ¡gina-1" id="qncqGk2m5hp4nXA1f4li">
    <mxGraphModel dx="1026" dy="559" grid="1" gridSize="10" guides="1" tooltips="1" connect="1" arrows="1" fold="1" page="1" pageScale="1" pageWidth="827" pageHeight="1169" math="0" shadow="0">
      <root>
        <mxCell id="0" />
        <mxCell id="1" parent="0" />
        <mxCell id="_Bi8uQofXFCm6FVDYJ0g-1" value="0/0" style="edgeStyle=orthogonalEdgeStyle;rounded=0;orthogonalLoop=1;jettySize=auto;html=1;entryX=0;entryY=0.5;entryDx=0;entryDy=0;" edge="1" parent="1" source="_Bi8uQofXFCm6FVDYJ0g-2" target="_Bi8uQofXFCm6FVDYJ0g-3">
          <mxGeometry relative="1" as="geometry" />
        </mxCell>
        <mxCell id="_Bi8uQofXFCm6FVDYJ0g-2" value="C" style="rounded=0;whiteSpace=wrap;html=1;" vertex="1" parent="1">
          <mxGeometry x="450" y="200" width="80" height="40" as="geometry" />
        </mxCell>
        <mxCell id="_Bi8uQofXFCm6FVDYJ0g-12" value="1/1" style="edgeStyle=orthogonalEdgeStyle;rounded=0;orthogonalLoop=1;jettySize=auto;html=1;exitX=0.25;exitY=0;exitDx=0;exitDy=0;entryX=0.25;entryY=0;entryDx=0;entryDy=0;" edge="1" parent="1" source="_Bi8uQofXFCm6FVDYJ0g-3" target="_Bi8uQofXFCm6FVDYJ0g-5">
          <mxGeometry relative="1" as="geometry" />
        </mxCell>
        <mxCell id="_Bi8uQofXFCm6FVDYJ0g-13" value="0/0" style="edgeStyle=orthogonalEdgeStyle;rounded=0;orthogonalLoop=1;jettySize=auto;html=1;exitX=0.75;exitY=0;exitDx=0;exitDy=0;entryX=0.25;entryY=0;entryDx=0;entryDy=0;" edge="1" parent="1" source="_Bi8uQofXFCm6FVDYJ0g-3" target="_Bi8uQofXFCm6FVDYJ0g-7">
          <mxGeometry relative="1" as="geometry">
            <Array as="points">
              <mxPoint x="630" y="170" />
              <mxPoint x="230" y="170" />
            </Array>
          </mxGeometry>
        </mxCell>
        <mxCell id="_Bi8uQofXFCm6FVDYJ0g-3" value="D" style="rounded=0;whiteSpace=wrap;html=1;" vertex="1" parent="1">
          <mxGeometry x="570" y="200" width="80" height="40" as="geometry" />
        </mxCell>
        <mxCell id="_Bi8uQofXFCm6FVDYJ0g-4" value="1/0" style="edgeStyle=orthogonalEdgeStyle;rounded=0;orthogonalLoop=1;jettySize=auto;html=1;entryX=0;entryY=0.5;entryDx=0;entryDy=0;" edge="1" parent="1" source="_Bi8uQofXFCm6FVDYJ0g-5" target="_Bi8uQofXFCm6FVDYJ0g-2">
          <mxGeometry relative="1" as="geometry" />
        </mxCell>
        <mxCell id="_Bi8uQofXFCm6FVDYJ0g-15" value="0/0" style="edgeStyle=orthogonalEdgeStyle;rounded=0;orthogonalLoop=1;jettySize=auto;html=1;exitX=0.25;exitY=1;exitDx=0;exitDy=0;entryX=0;entryY=1;entryDx=0;entryDy=0;" edge="1" parent="1" source="_Bi8uQofXFCm6FVDYJ0g-5" target="_Bi8uQofXFCm6FVDYJ0g-7">
          <mxGeometry relative="1" as="geometry">
            <Array as="points">
              <mxPoint x="350" y="270" />
              <mxPoint x="210" y="270" />
            </Array>
          </mxGeometry>
        </mxCell>
        <mxCell id="_Bi8uQofXFCm6FVDYJ0g-5" value="B" style="rounded=0;whiteSpace=wrap;html=1;" vertex="1" parent="1">
          <mxGeometry x="330" y="200" width="80" height="40" as="geometry" />
        </mxCell>
        <mxCell id="_Bi8uQofXFCm6FVDYJ0g-6" value="1/0" style="edgeStyle=orthogonalEdgeStyle;rounded=0;orthogonalLoop=1;jettySize=auto;html=1;entryX=0;entryY=0.5;entryDx=0;entryDy=0;" edge="1" parent="1" source="_Bi8uQofXFCm6FVDYJ0g-7" target="_Bi8uQofXFCm6FVDYJ0g-5">
          <mxGeometry relative="1" as="geometry" />
        </mxCell>
        <mxCell id="_Bi8uQofXFCm6FVDYJ0g-7" value="A" style="rounded=0;whiteSpace=wrap;html=1;" vertex="1" parent="1">
          <mxGeometry x="210" y="200" width="80" height="40" as="geometry" />
        </mxCell>
        <mxCell id="_Bi8uQofXFCm6FVDYJ0g-14" value="0/0" style="edgeStyle=orthogonalEdgeStyle;rounded=0;orthogonalLoop=1;jettySize=auto;html=1;exitX=0.75;exitY=1;exitDx=0;exitDy=0;entryX=0.25;entryY=1;entryDx=0;entryDy=0;" edge="1" parent="1" source="_Bi8uQofXFCm6FVDYJ0g-7" target="_Bi8uQofXFCm6FVDYJ0g-7">
          <mxGeometry relative="1" as="geometry" />
        </mxCell>
        <mxCell id="_Bi8uQofXFCm6FVDYJ0g-16" value="1/0" style="edgeStyle=orthogonalEdgeStyle;rounded=0;orthogonalLoop=1;jettySize=auto;html=1;exitX=0.75;exitY=1;exitDx=0;exitDy=0;entryX=0.25;entryY=1;entryDx=0;entryDy=0;" edge="1" parent="1" source="_Bi8uQofXFCm6FVDYJ0g-2" target="_Bi8uQofXFCm6FVDYJ0g-2">
          <mxGeometry relative="1" as="geometry" />
        </mxCell>
      </root>
    </mxGraphModel>
  </diagram>
</mxfile>
